{"asset": {"version": "2.0", "generator": "wallet-landia sample pack"}, "scene": 0, "scenes": [{"nodes": [0]}], "nodes": [{"mesh": 0}], "meshes": [{"primitives": [{"attributes": {"POSITION": 0}, "indices": 1, "material": 0}, {"attributes": {"POSITION": 2}, "indices": 3, "material": 1}, {"attributes": {"POSITION": 4}, "indices": 5, "material": 2}, {"attributes": {"POSITION": 6}, "indices": 7, "material": 3}]}], "materials": [{"pbrMetallicRoughness": {"baseColorFactor": [0.37, 0.23, 0.12, 1], "metallicFactor": 0.0, "roughnessFactor": 0.8}}, {"pbrMetallicRoughness": {"baseColorFactor": [0.2, 0.38, 0.32, 1], "metallicFactor": 0.0, "roughnessFactor": 0.8}}, {"pbrMetallicRoughness": {"baseColorFactor": [0.27, 0.48, 0.4, 1], "metallicFactor": 0.0, "roughnessFactor": 0.8}}, {"pbrMetallicRoughness": {"baseColorFactor": [0.96, 0.97, 1, 1], "metallicFactor": 0.0, "roughnessFactor": 0.8}}], "accessors": [{"bufferView": 0, "componentType": 5126, "count": 24, "type": "VEC3", "min": [-0.08, 0, -0.08], "max": [0.08, 0.4, 0.08]}, {"bufferView": 1, "componentType": 5123, "count": 36, "type": "SCALAR"}, {"bufferView": 2, "componentType": 5126, "count": 21, "type": "VEC3", "min": [-0.49553287734633056, 0.3, -0.5362103517000031], "max": [0.55, 1.2, 0.5362103517000031]}, {"bufferView": 3, "componentType": 5123, "count": 21, "type": "SCALAR"}, {"bufferView": 4, "componentType": 5126, "count": 21, "type": "VEC3", "min": [-0.37840692451901603, 0.85, -0.4094697231163659], "max": [0.42, 1.6, 0.4094697231163659]}, {"bufferView": 5, "componentType": 5123, "count": 21, "type": "SCALAR"}, {"bufferView": 6, "componentType": 5126, "count": 21, "type": "VEC3", "min": [-0.18019377358048383, 1.45, -0.19498558243636474], "max": [0.2, 1.75, 0.19498558243636474]}, {"bufferView": 7, "componentType": 5123, "count": 21, "type": "SCALAR"}], "bufferViews": [{"buffer": 0, "byteOffset": 0, "byteLength": 288, "target": 34962}, {"buffer": 0, "byteOffset": 288, "byteLength": 72, "target": 34963}, {"buffer": 0, "byteOffset": 360, "byteLength": 252, "target": 34962}, {"buffer": 0, "byteOffset": 612, "byteLength": 42, "target": 34963}, {"buffer": 0, "byteOffset": 656, "byteLength": 252, "target": 34962}, {"buffer": 0, "byteOffset": 908, "byteLength": 42, "target": 34963}, {"buffer": 0, "byteOffset": 952, "byteLength": 252, "target": 34962}, {"buffer": 0, "byteOffset": 1204, "byteLength": 42, "target": 34963}], "buffers": [{"byteLength": 1248, "uri": "data:application/octet-stream;base64,"}]}