{"asset": {"version": "2.0", "generator": "wallet-landia sample pack"}, "scene": 0, "scenes": [{"nodes": [0]}], "nodes": [{"mesh": 0}], "meshes": [{"primitives": [{"attributes": {"POSITION": 0}, "indices": 1, "material": 0}, {"attributes": {"POSITION": 2}, "indices": 3, "material": 1}, {"attributes": {"POSITION": 4}, "indices": 5, "material": 2}]}], "materials": [{"pbrMetallicRoughness": {"baseColorFactor": [0.81, 0.9, 0.96, 1], "metallicFactor": 0.0, "roughnessFactor": 0.8}}, {"pbrMetallicRoughness": {"baseColorFactor": [0.5, 0.72, 0.88, 1], "metallicFactor": 0.0, "roughnessFactor": 0.8}}, {"pbrMetallicRoughness": {"baseColorFactor": [0.23, 0.35, 0.48, 1], "metallicFactor": 0.0, "roughnessFactor": 0.8}}], "accessors": [{"bufferView": 0, "componentType": 5126, "count": 24, "type": "VEC3", "min": [-1.15, 0, -1.15], "max": [1.15, 1.9, 1.15]}, {"bufferView": 1, "componentType": 5123, "count": 36, "type": "SCALAR"}, {"bufferView": 2, "componentType": 5126, "count": 12, "type": "VEC3", "min": [-1.75, 1.9, -1.75], "max": [1.75, 3.2, 1.75]}, {"bufferView": 3, "componentType": 5123, "count": 12, "type": "SCALAR"}, {"bufferView": 4, "componentType": 5126, "count": 24, "type": "VEC3", "min": [-0.3, 0, 1.15], "max": [0.3, 0.85, 1.2]}, {"bufferView": 5, "componentType": 5123, "count": 36, "type": "SCALAR"}], "bufferViews": [{"buffer": 0, "byteOffset": 0, "byteLength": 288, "target": 34962}, {"buffer": 0, "byteOffset": 288, "byteLength": 72, "target": 34963}, {"buffer": 0, "byteOffset": 360, "byteLength": 144, "target": 34962}, {"buffer": 0, "byteOffset": 504, "byteLength": 24, "target": 34963}, {"buffer": 0, "byteOffset": 528, "byteLength": 288, "target": 34962}, {"buffer": 0, "byteOffset": 816, "byteLength": 72, "target": 34963}], "buffers": [{"byteLength": 888, "uri": "data:application/octet-stream;base64,"}]}